<?xml version="1.0" encoding="UTF-8" standalone="no"?>
<!DOCTYPE svg PUBLIC "-//W3C//DTD SVG 1.1//EN" "http://www.w3.org/Graphics/SVG/1.1/DTD/svg11.dtd">
<svg width="100%" height="100%" viewBox="0 0 1772 304" version="1.1" xmlns="http://www.w3.org/2000/svg" xmlns:xlink="http://www.w3.org/1999/xlink" xml:space="preserve" xmlns:serif="http://www.serif.com/" style="fill-rule:evenodd;clip-rule:evenodd;stroke-linejoin:round;stroke-miterlimit:2;">
    <g transform="matrix(1,0,0,1,-357.208,-210.779)">
        <g transform="matrix(13.4234,0,0,13.4234,-4117.55,-2237.27)">
            <path d="M333.356,182.804L337.1,182.804C339.628,182.804 341.468,182.992 342.62,183.368C343.772,183.744 344.768,184.328 345.608,185.12C346.448,185.912 347.092,186.876 347.54,188.012C347.988,189.148 348.212,190.46 348.212,191.948C348.212,193.436 347.88,194.84 347.216,196.16C346.552,197.48 345.608,198.512 344.384,199.256C343.16,200 341.372,200.372 339.02,200.372L333.356,200.372L333.356,182.804ZM335.348,198.404L337.172,198.404C339.204,198.404 340.684,198.3 341.612,198.092C342.54,197.884 343.348,197.484 344.036,196.892C344.724,196.3 345.248,195.576 345.608,194.72C345.968,193.864 346.148,192.876 346.148,191.756C346.148,190.636 345.936,189.6 345.512,188.648C345.088,187.696 344.484,186.92 343.7,186.32C342.916,185.72 341.996,185.32 340.94,185.12C339.884,184.92 338.372,184.82 336.404,184.82L335.348,184.82L335.348,198.404Z" style="fill:rgb(255,44,126);fill-rule:nonzero;"/>
            <path d="M356.468,187.484L355.436,189.164C355.164,189.02 354.9,188.948 354.644,188.948C354.148,188.948 353.7,189.192 353.3,189.68C352.9,190.168 352.6,190.808 352.4,191.6C352.2,192.392 352.1,193.82 352.1,195.884L352.1,200.372L350.084,200.372L350.084,187.292L352.1,187.292L352.1,188.708C352.5,188.116 352.904,187.676 353.312,187.388C353.72,187.1 354.184,186.956 354.704,186.956C355.224,186.956 355.812,187.132 356.468,187.484Z" style="fill:rgb(255,44,126);fill-rule:nonzero;"/>
            <path d="M371.204,200.372L369.26,200.372L369.26,198.452C367.836,200.02 366.196,200.804 364.34,200.804C362.484,200.804 360.896,200.12 359.576,198.752C358.256,197.384 357.596,195.752 357.596,193.856C357.596,191.96 358.26,190.336 359.588,188.984C360.916,187.632 362.536,186.956 364.448,186.956C366.36,186.956 367.964,187.732 369.26,189.284L369.26,187.292L371.204,187.292L371.204,200.372ZM364.484,198.956C365.812,198.956 366.956,198.476 367.916,197.516C368.876,196.556 369.356,195.36 369.356,193.928C369.356,192.496 368.884,191.296 367.94,190.328C366.996,189.36 365.84,188.876 364.472,188.876C363.104,188.876 361.948,189.376 361.004,190.376C360.06,191.376 359.588,192.556 359.588,193.916C359.588,195.276 360.068,196.456 361.028,197.456C361.988,198.456 363.14,198.956 364.484,198.956Z" style="fill:rgb(255,44,126);fill-rule:nonzero;"/>
            <path d="M387.644,197.3C387.644,199.028 387.496,200.308 387.2,201.14C386.904,201.972 386.456,202.676 385.856,203.252C385.256,203.828 384.536,204.264 383.696,204.56C382.856,204.856 381.932,205.004 380.924,205.004C377.516,205.004 375.244,203.564 374.108,200.684L376.22,200.684C377.148,202.348 378.692,203.18 380.852,203.18C381.844,203.18 382.732,202.988 383.516,202.604C384.3,202.22 384.852,201.708 385.172,201.068C385.492,200.428 385.652,199.444 385.652,198.116L385.652,197.996C385.028,198.7 384.276,199.236 383.396,199.604C382.516,199.972 381.604,200.156 380.66,200.156C378.772,200.156 377.192,199.508 375.92,198.212C374.648,196.916 374.02,195.388 374.036,193.628C374.02,191.788 374.684,190.216 376.028,188.912C377.372,187.608 378.968,186.956 380.816,186.956C382.664,186.956 384.276,187.708 385.652,189.212L385.652,187.292L387.644,187.292L387.644,197.3ZM385.724,193.628C385.724,192.252 385.264,191.116 384.344,190.22C383.424,189.324 382.3,188.876 380.972,188.876C379.564,188.876 378.384,189.36 377.432,190.328C376.48,191.296 376.004,192.42 376.004,193.7C376.004,194.98 376.46,196.064 377.372,196.952C378.284,197.84 379.452,198.284 380.876,198.284C382.3,198.284 383.464,197.848 384.368,196.976C385.272,196.104 385.724,194.988 385.724,193.628Z" style="fill:rgb(255,44,126);fill-rule:nonzero;"/>
            <path d="M396.932,186.956C398.82,186.956 400.424,187.636 401.744,188.996C403.064,190.356 403.724,191.988 403.724,193.892C403.724,195.796 403.072,197.424 401.768,198.776C400.464,200.128 398.852,200.804 396.932,200.804C395.012,200.804 393.396,200.128 392.084,198.776C390.772,197.424 390.116,195.796 390.116,193.892C390.116,191.988 390.776,190.356 392.096,188.996C393.416,187.636 395.028,186.956 396.932,186.956ZM396.932,198.908C398.26,198.908 399.392,198.424 400.328,197.456C401.264,196.488 401.732,195.32 401.732,193.952C401.732,192.584 401.256,191.4 400.304,190.4C399.352,189.4 398.224,188.9 396.92,188.9C395.616,188.9 394.492,189.4 393.548,190.4C392.604,191.4 392.132,192.588 392.132,193.964C392.132,195.34 392.588,196.508 393.5,197.468C394.412,198.428 395.556,198.908 396.932,198.908Z" style="fill:rgb(255,44,126);fill-rule:nonzero;"/>
            <path d="M417.908,200.372L415.94,200.372L415.94,194.132C415.94,192.692 415.872,191.712 415.736,191.192C415.6,190.672 415.4,190.232 415.136,189.872C414.872,189.512 414.536,189.244 414.128,189.068C413.72,188.892 413.224,188.804 412.64,188.804C412.056,188.804 411.484,188.948 410.924,189.236C410.364,189.524 409.884,189.924 409.484,190.436C409.084,190.948 408.808,191.492 408.656,192.068C408.504,192.644 408.428,193.796 408.428,195.524L408.428,200.372L406.436,200.372L406.436,187.292L408.428,187.292L408.428,189.26C409.724,187.724 411.26,186.956 413.036,186.956C413.98,186.956 414.836,187.2 415.604,187.688C416.372,188.176 416.948,188.848 417.332,189.704C417.716,190.56 417.908,191.876 417.908,193.652L417.908,200.372Z" style="fill:rgb(255,44,126);fill-rule:nonzero;"/>
            <path d="M430.316,191.924L423.404,191.924L423.404,200.372L421.34,200.372L421.34,182.804L430.316,182.804L430.316,184.844L423.404,184.844L423.404,189.884L430.316,189.884L430.316,191.924Z" style="fill:white;fill-rule:nonzero;"/>
            <path d="M438.236,187.484L437.204,189.164C436.932,189.02 436.668,188.948 436.412,188.948C435.916,188.948 435.468,189.192 435.068,189.68C434.668,190.168 434.368,190.808 434.168,191.6C433.968,192.392 433.868,193.82 433.868,195.884L433.868,200.372L431.852,200.372L431.852,187.292L433.868,187.292L433.868,188.708C434.268,188.116 434.672,187.676 435.08,187.388C435.488,187.1 435.952,186.956 436.472,186.956C436.992,186.956 437.58,187.132 438.236,187.484Z" style="fill:white;fill-rule:nonzero;"/>
            <path d="M451.22,200.372L449.228,200.372L449.228,198.404C447.932,199.94 446.396,200.708 444.62,200.708C443.676,200.708 442.82,200.464 442.052,199.976C441.284,199.488 440.708,198.816 440.324,197.96C439.94,197.104 439.748,195.788 439.748,194.012L439.748,187.292L441.716,187.292L441.716,193.532C441.716,194.972 441.784,195.952 441.92,196.472C442.056,196.992 442.256,197.432 442.52,197.792C442.784,198.152 443.12,198.42 443.528,198.596C443.936,198.772 444.432,198.86 445.016,198.86C445.6,198.86 446.172,198.716 446.732,198.428C447.292,198.14 447.772,197.74 448.172,197.228C448.572,196.716 448.848,196.172 449,195.596C449.152,195.02 449.228,193.868 449.228,192.14L449.228,187.292L451.22,187.292L451.22,200.372Z" style="fill:white;fill-rule:nonzero;"/>
            <path d="M455.276,182.372C455.708,182.372 456.072,182.52 456.368,182.816C456.664,183.112 456.812,183.472 456.812,183.896C456.812,184.32 456.664,184.68 456.368,184.976C456.072,185.272 455.712,185.42 455.288,185.42C454.864,185.42 454.504,185.268 454.208,184.964C453.912,184.66 453.764,184.304 453.764,183.896C453.764,183.488 453.912,183.132 454.208,182.828C454.504,182.524 454.86,182.372 455.276,182.372Z" style="fill:rgb(191,254,46);"/>
            <rect x="454.292" y="187.292" width="1.992" height="13.08" style="fill:white;"/>
            <path d="M465.356,189.02L462.764,189.02L462.764,198.188C462.764,198.524 462.812,198.728 462.908,198.8C463.004,198.872 463.244,198.908 463.628,198.908L464.78,198.908L464.78,200.612C464.012,200.74 463.428,200.804 463.028,200.804C462.26,200.804 461.692,200.616 461.324,200.24C460.956,199.864 460.772,199.268 460.772,198.452L460.772,189.02L458.516,189.02L458.516,187.292L460.772,187.292L460.772,182.372L462.764,182.372L462.764,187.292L465.356,187.292L465.356,189.02Z" style="fill:white;fill-rule:nonzero;"/>
        </g>
    </g>
</svg>
