<?xml version="1.0" encoding="UTF-8" standalone="no"?><!DOCTYPE svg PUBLIC "-//W3C//DTD SVG 1.1//EN" "http://www.w3.org/Graphics/SVG/1.1/DTD/svg11.dtd"><svg width="100%" height="100%" viewBox="0 0 5000 2625" version="1.1" xmlns="http://www.w3.org/2000/svg" xmlns:xlink="http://www.w3.org/1999/xlink" xml:space="preserve" xmlns:serif="http://www.serif.com/" style="fill-rule:evenodd;clip-rule:evenodd;stroke-linejoin:round;stroke-miterlimit:2;"><rect x="0" y="0" width="5000" height="2625" style="fill:url(#_Linear1);"/><rect x="0" y="0" width="5000" height="2625" style="fill:url(#_Radial2);"/><rect x="0" y="0" width="5000" height="2625" style="fill:url(#_Radial3);"/><g><g><g><path d="M760.273,917.387l96.327,0c65.04,0 112.38,4.837 142.019,14.511c29.639,9.674 55.264,24.699 76.876,45.076c21.612,20.377 38.181,45.178 49.707,74.406c11.526,29.227 17.289,62.982 17.289,101.266c0,38.283 -8.542,74.406 -25.625,108.367c-17.084,33.961 -41.371,60.513 -72.862,79.654c-31.492,19.142 -77.494,28.713 -138.006,28.713l-145.725,0l0,-451.993Zm51.251,401.36l46.928,-0c52.28,-0 90.357,-2.676 114.233,-8.027c23.876,-5.352 44.664,-15.643 62.365,-30.874c17.701,-15.231 31.183,-33.858 40.445,-55.882c9.262,-22.023 13.893,-47.442 13.893,-76.258c0,-28.816 -5.454,-55.47 -16.363,-79.963c-10.909,-24.493 -26.449,-44.458 -46.619,-59.895c-20.171,-15.437 -43.841,-25.729 -71.01,-30.874c-27.169,-5.146 -66.07,-7.719 -116.703,-7.719l-27.169,0l-0,349.492Z" style="fill:#ff2c7e;fill-rule:nonzero;"/><path d="M1354.9,1037.8l-26.551,43.224c-6.999,-3.705 -13.791,-5.558 -20.377,-5.558c-12.761,0 -24.288,6.278 -34.579,18.833c-10.291,12.556 -18.01,29.022 -23.155,49.398c-5.146,20.377 -7.719,57.117 -7.719,110.22l0,115.468l-51.868,0l0,-336.525l51.868,0l0,36.432c10.292,-15.232 20.686,-26.552 31.183,-33.962c10.497,-7.409 22.435,-11.114 35.813,-11.114c13.379,-0 28.507,4.528 45.385,13.584Z" style="fill:#ff2c7e;fill-rule:nonzero;"/><path d="M1734.03,1369.38l-50.016,0l-0,-49.398c-36.637,40.342 -78.831,60.513 -126.583,60.513c-47.751,-0 -88.608,-17.598 -122.569,-52.795c-33.961,-35.196 -50.942,-77.184 -50.942,-125.965c0,-48.78 17.084,-90.563 51.251,-125.348c34.167,-34.784 75.847,-52.176 125.039,-52.176c49.192,-0 90.46,19.965 123.804,59.895l-0,-51.251l50.016,0l-0,336.525Zm-172.894,-36.431c34.167,-0 63.6,-12.35 88.299,-37.049c24.699,-24.699 37.049,-55.47 37.049,-92.312c-0,-36.843 -12.144,-67.717 -36.431,-92.622c-24.288,-24.905 -54.029,-37.357 -89.226,-37.357c-35.196,-0 -64.938,12.864 -89.225,38.592c-24.287,25.728 -36.431,56.088 -36.431,91.078c-0,34.99 12.349,65.349 37.049,91.078c24.699,25.728 54.337,38.592 88.916,38.592Z" style="fill:#ff2c7e;fill-rule:nonzero;"/><path d="M2157.01,1290.34c-0,44.458 -3.808,77.39 -11.423,98.796c-7.616,21.406 -19.142,39.519 -34.579,54.338c-15.437,14.82 -33.961,26.037 -55.573,33.653c-21.612,7.615 -45.385,11.423 -71.319,11.423c-87.681,-0 -146.136,-37.049 -175.363,-111.146l54.338,0c23.876,42.812 63.6,64.218 119.173,64.218c25.522,-0 48.369,-4.94 68.54,-14.82c20.171,-9.879 34.373,-23.052 42.606,-39.518c8.233,-16.466 12.349,-41.783 12.349,-75.95l0,-3.087c-16.054,18.113 -35.402,31.903 -58.042,41.371c-22.641,9.468 -46.105,14.202 -70.393,14.202c-48.575,-0 -89.225,-16.672 -121.951,-50.016c-32.727,-33.344 -48.884,-72.656 -48.472,-117.938c-0.412,-47.34 16.672,-87.784 51.25,-121.334c34.579,-33.549 75.641,-50.324 123.187,-50.324c47.545,-0 89.019,19.347 124.421,58.043l0,-49.399l51.251,0l-0,257.488Zm-49.398,-94.474c-0,-35.402 -11.835,-64.629 -35.505,-87.681c-23.67,-23.053 -52.589,-34.579 -86.756,-34.579c-36.225,-0 -66.584,12.452 -91.077,37.357c-24.494,24.905 -36.74,53.824 -36.74,86.756c-0,32.932 11.732,60.821 35.196,83.668c23.464,22.846 53.515,34.27 90.152,34.27c36.636,-0 66.584,-11.218 89.842,-33.653c23.259,-22.435 34.888,-51.147 34.888,-86.138Z" style="fill:#ff2c7e;fill-rule:nonzero;"/><path d="M2395.97,1024.21c48.575,-0 89.843,17.495 123.804,52.485c33.961,34.991 50.942,76.979 50.942,125.965c0,48.987 -16.775,90.872 -50.324,125.657c-33.55,34.784 -75.024,52.177 -124.422,52.177c-49.398,-0 -90.975,-17.393 -124.73,-52.177c-33.755,-34.785 -50.633,-76.67 -50.633,-125.657c-0,-48.986 16.981,-90.974 50.942,-125.965c33.961,-34.99 75.435,-52.485 124.421,-52.485Zm0,307.503c34.167,-0 63.292,-12.452 87.373,-37.357c24.082,-24.905 36.122,-54.956 36.122,-90.152c0,-35.196 -12.246,-65.658 -36.739,-91.386c-24.494,-25.729 -53.515,-38.593 -87.065,-38.593c-33.549,0 -62.468,12.864 -86.755,38.593c-24.287,25.728 -36.431,56.293 -36.431,91.695c-0,35.402 11.732,65.452 35.196,90.151c23.464,24.699 52.897,37.049 88.299,37.049Z" style="fill:#ff2c7e;fill-rule:nonzero;"/><path d="M2935.64,1369.38l-50.633,0l-0,-160.544c-0,-37.048 -1.75,-62.262 -5.249,-75.641c-3.499,-13.378 -8.645,-24.699 -15.437,-33.961c-6.792,-9.262 -15.437,-16.157 -25.934,-20.685c-10.497,-4.529 -23.258,-6.793 -38.283,-6.793c-15.026,0 -29.742,3.705 -44.15,11.115c-14.408,7.41 -26.757,17.701 -37.049,30.874c-10.291,13.173 -17.392,27.169 -21.303,41.988c-3.91,14.82 -5.866,44.459 -5.866,88.917l0,124.73l-51.25,0l-0,-336.525l51.25,0l0,50.633c33.344,-39.518 72.863,-59.277 118.556,-59.277c24.287,-0 46.311,6.277 66.07,18.833c19.759,12.555 34.579,29.844 44.458,51.868c9.88,22.023 14.82,55.881 14.82,101.575l-0,172.893Z" style="fill:#ff2c7e;fill-rule:nonzero;"/><path d="M3254.88,1152.03l-177.833,0l-0,217.352l-53.103,0l-0,-451.993l230.936,0l-0,52.486l-177.833,-0l-0,129.67l177.833,-0l-0,52.485Z" style="fill:#fff;fill-rule:nonzero;"/><path d="M3458.64,1037.8l-26.551,43.224c-6.998,-3.705 -13.791,-5.558 -20.377,-5.558c-12.761,0 -24.288,6.278 -34.579,18.833c-10.291,12.556 -18.01,29.022 -23.155,49.398c-5.146,20.377 -7.719,57.117 -7.719,110.22l0,115.468l-51.868,0l0,-336.525l51.868,0l0,36.432c10.292,-15.232 20.686,-26.552 31.183,-33.962c10.497,-7.409 22.435,-11.114 35.814,-11.114c13.378,-0 28.506,4.528 45.384,13.584Z" style="fill:#fff;fill-rule:nonzero;"/><path d="M3792.7,1369.38l-51.251,0l0,-50.633c-33.343,39.518 -72.862,59.278 -118.555,59.278c-24.288,-0 -46.311,-6.278 -66.07,-18.833c-19.759,-12.556 -34.579,-29.845 -44.458,-51.868c-9.88,-22.024 -14.82,-55.882 -14.82,-101.575l0,-172.894l50.633,0l0,160.544c0,37.049 1.75,62.262 5.249,75.641c3.499,13.379 8.644,24.699 15.437,33.961c6.792,9.262 15.437,16.158 25.934,20.686c10.497,4.528 23.258,6.792 38.283,6.792c15.025,0 29.742,-3.705 44.15,-11.115c14.408,-7.409 26.757,-17.701 37.048,-30.873c10.292,-13.173 17.393,-27.169 21.303,-41.989c3.911,-14.819 5.866,-44.458 5.866,-88.916l0,-124.731l51.251,0l-0,336.525Z" style="fill:#fff;fill-rule:nonzero;"/><path d="M3897.05,906.273c11.115,-0 20.48,3.808 28.096,11.423c7.615,7.616 11.423,16.878 11.423,27.786c-0,10.909 -3.808,20.171 -11.423,27.787c-7.616,7.615 -16.878,11.423 -27.787,11.423c-10.909,0 -20.171,-3.91 -27.786,-11.732c-7.616,-7.821 -11.424,-16.98 -11.424,-27.478c0,-10.497 3.808,-19.656 11.424,-27.477c7.615,-7.822 16.774,-11.732 27.477,-11.732Z" style="fill:#bffe2e;fill-rule:nonzero;"/><rect x="3871.74" y="1032.86" width="51.251" height="336.525" style="fill:#fff;"/><path d="M4156.39,1077.31l-66.687,-0l-0,235.876c-0,8.644 1.235,13.893 3.705,15.745c2.47,1.853 8.645,2.779 18.524,2.779l29.639,-0l-0,43.841c-19.759,3.293 -34.785,4.94 -45.076,4.94c-19.759,-0 -34.373,-4.837 -43.841,-14.511c-9.468,-9.674 -14.202,-25.008 -14.202,-46.002l0,-242.668l-58.042,-0l-0,-44.459l58.042,0l0,-126.582l51.251,-0l-0,126.582l66.687,0l0,44.459Z" style="fill:#fff;fill-rule:nonzero;"/></g></g></g><text x="1099.01px" y="1878.11px" style="font-family:'ArialMT', 'Arial', sans-serif;font-size:183.204px;fill:#d8dde6;">O<tspan x="1241.88px 1344.13px 1446.39px 1548.64px 1610.02px 1732.58px 1834.84px 1937.09px 1998.47px 2090.44px 2192.69px 2243.96px 2366.52px 2417.79px 2550.46px 2591.53px 2693.78px 2796.04px 2847.3px 2969.87px 3072.12px 3133.5px 3184.76px 3287.02px 3348.39px 3501.37px 3603.62px 3705.88px 3797.85px " y="1878.11px 1878.11px 1878.11px 1878.11px 1878.11px 1878.11px 1878.11px 1878.11px 1878.11px 1878.11px 1878.11px 1878.11px 1878.11px 1878.11px 1878.11px 1878.11px 1878.11px 1878.11px 1878.11px 1878.11px 1878.11px 1878.11px 1878.11px 1878.11px 1878.11px 1878.11px 1878.11px 1878.11px 1878.11px ">pen-Source &amp; High Performance</tspan></text><defs><linearGradient id="_Linear1" x1="0" y1="0" x2="1" y2="0" gradientUnits="userSpaceOnUse" gradientTransform="matrix(4166.67,2625,-2625,4166.67,416.667,0)"><stop offset="0" style="stop-color:#181019;stop-opacity:1"/><stop offset="0.52" style="stop-color:#101319;stop-opacity:1"/><stop offset="1" style="stop-color:#0b0f14;stop-opacity:1"/></linearGradient><radialGradient id="_Radial2" cx="0" cy="0" r="1" gradientUnits="userSpaceOnUse" gradientTransform="matrix(-3.98809e-13,1041.67,-1041.67,-3.98809e-13,791.667,708.333)"><stop offset="0" style="stop-color:#ec2a77;stop-opacity:0.18"/><stop offset="0.6" style="stop-color:#ec2a77;stop-opacity:0.06"/><stop offset="1" style="stop-color:#ec2a77;stop-opacity:0"/></radialGradient><radialGradient id="_Radial3" cx="0" cy="0" r="1" gradientUnits="userSpaceOnUse" gradientTransform="matrix(-3.82857e-13,1000,-1000,-3.82857e-13,4208.33,625)"><stop offset="0" style="stop-color:#baf72e;stop-opacity:0.12"/><stop offset="0.6" style="stop-color:#baf72e;stop-opacity:0.04"/><stop offset="1" style="stop-color:#baf72e;stop-opacity:0"/></radialGradient></defs></svg>